<svg width="500" height="500" viewBox="0 0 500 500" fill="none" xmlns="http://www.w3.org/2000/svg">
<g clip-path="url(#clip0_2_2)">
<mask id="path-1-outside-1_2_2" maskUnits="userSpaceOnUse" x="53" y="102" width="387" height="308" fill="black">
<rect fill="white" x="53" y="102" width="387" height="308"/>
<path d="M57.5 406V106H96.5625L397.93 359.711H398.32V106H435.82V406H396.758L95.3906 150.141H95V406H57.5Z"/>
</mask>
<path d="M57.5 406V106H96.5625L397.93 359.711H398.32V106H435.82V406H396.758L95.3906 150.141H95V406H57.5Z" fill="black"/>
<path d="M57.5 406H53.5V410H57.5V406ZM57.5 106V102H53.5V106H57.5ZM96.5625 106L99.1386 102.94L98.0221 102H96.5625V106ZM397.93 359.711L395.354 362.771L396.47 363.711H397.93V359.711ZM398.32 359.711V363.711H402.32V359.711H398.32ZM398.32 106V102H394.32V106H398.32ZM435.82 106H439.82V102H435.82V106ZM435.82 406V410H439.82V406H435.82ZM396.758 406L394.169 409.049L395.289 410H396.758V406ZM95.3906 150.141L97.9794 147.091L96.8596 146.141H95.3906V150.141ZM95 150.141V146.141H91V150.141H95ZM95 406V410H99V406H95ZM57.5 406H61.5V106H57.5H53.5V406H57.5ZM57.5 106V110H96.5625V106V102H57.5V106ZM96.5625 106L93.9864 109.06L395.354 362.771L397.93 359.711L400.506 356.651L99.1386 102.94L96.5625 106ZM397.93 359.711V363.711H398.32V359.711V355.711H397.93V359.711ZM398.32 359.711H402.32V106H398.32H394.32V359.711H398.32ZM398.32 106V110H435.82V106V102H398.32V106ZM435.82 106H431.82V406H435.82H439.82V106H435.82ZM435.82 406V402H396.758V406V410H435.82V406ZM396.758 406L399.347 402.951L97.9794 147.091L95.3906 150.141L92.8018 153.19L394.169 409.049L396.758 406ZM95.3906 150.141V146.141H95V150.141V154.141H95.3906V150.141ZM95 150.141H91V406H95H99V150.141H95ZM95 406V402H57.5V406V410H95V406Z" fill="white" mask="url(#path-1-outside-1_2_2)"/>
</g>
<defs>
<clipPath id="clip0_2_2">
<rect width="500" height="500" fill="white"/>
</clipPath>
</defs>
</svg>
